<?xml version="1.0" encoding="utf-8"?>
<svg viewBox="0 0 128 128" xmlns="http://www.w3.org/2000/svg">
  <path d="M 118.815 58.926 L 69.07 9.187 C 66.208 6.322 61.562 6.322 58.696 9.187 L 48.367 19.517 L 61.469 32.619 C 64.515 31.591 68.006 32.28 70.433 34.708 C 72.873 37.15 73.557 40.671 72.503 43.727 L 85.131 56.355 C 88.186 55.302 91.711 55.982 94.151 58.426 C 97.561 61.836 97.561 67.361 94.151 70.771 C 90.739 74.183 85.215 74.183 81.802 70.771 C 79.237 68.205 78.603 64.437 79.902 61.277 L 68.125 49.5 L 68.124 80.491 C 68.955 80.903 69.74 81.452 70.433 82.142 C 73.842 85.551 73.842 91.075 70.433 94.49 C 67.022 97.899 61.495 97.899 58.088 94.49 C 54.678 91.075 54.678 85.551 58.088 82.142 C 58.931 81.301 59.906 80.664 60.946 80.237 L 60.946 48.958 C 59.905 48.533 58.931 47.901 58.087 47.053 C 55.504 44.472 54.882 40.681 56.207 37.509 L 43.291 24.591 L 9.185 58.696 C 6.319 61.563 6.319 66.209 9.185 69.074 L 58.927 118.813 C 61.791 121.678 66.435 121.678 69.303 118.813 L 118.815 69.309 C 121.68 66.443 121.68 61.796 118.815 58.93" transform="matrix(0, 1, -1, 0, 127.999622, 0.000373)"/>
</svg>